<?xml version="1.0" encoding="UTF-8" standalone="no"?>
<!-- Created with Inkscape (http://www.inkscape.org/) -->

<svg
   width="16.098917mm"
   height="16.098917mm"
   viewBox="0 0 16.098917 16.098917"
   version="1.1"
   id="svg5"
   xmlns="http://www.w3.org/2000/svg"
   xmlns:svg="http://www.w3.org/2000/svg">
  <defs
     id="defs2" />
  <g
     id="layer1"
     transform="translate(-33.826427,-77.104098)">
    <path
       id="path290"
       style="fill:#ffffff;stroke-width:0.0311973"
       d="m 49.925344,85.153557 a 8.0494585,8.0494585 0 0 1 -8.049459,8.049458 8.0494585,8.0494585 0 0 1 -8.049458,-8.049458 8.0494585,8.0494585 0 0 1 8.049458,-8.049459 8.0494585,8.0494585 0 0 1 8.049459,8.049459 z" />
    <path
       id="circle557"
       style="fill:#00bcff;stroke-width:0.0254227"
       d="m 48.435392,85.153557 a 6.5595069,6.5595069 0 0 1 -6.559507,6.559507 6.5595069,6.5595069 0 0 1 -6.559507,-6.559507 6.5595069,6.5595069 0 0 1 6.559507,-6.559507 6.5595069,6.5595069 0 0 1 6.559507,6.559507 z" />
    <g
       aria-label="Ft"
       id="text1265"
       style="font-weight:600;font-size:10.7337px;font-family:Oswald;-inkscape-font-specification:'Oswald Semi-Bold';fill:#f5f5f5;stroke-width:0.251571">
      <path
         d="m 38.204965,89.468506 v -8.694297 h 3.670925 v 1.202174 h -1.899865 v 2.350681 h 1.610055 v 1.234375 h -1.610055 v 3.907067 z"
         id="path1506"
         style="fill:#ffffff" />
      <path
         d="m 44.548573,89.532908 q -0.654755,0 -1.019701,-0.193207 -0.354212,-0.20394 -0.49375,-0.579619 -0.139539,-0.37568 -0.139539,-0.912365 v -3.520653 h -0.61182 v -1.062637 h 0.61182 V 81.38603 h 1.631523 v 1.878397 h 0.912364 v 1.062637 h -0.912364 v 3.370381 q 0,0.28981 0.150272,0.418615 0.150271,0.11807 0.40788,0.11807 0.128805,0 0.246875,-0.01073 0.118071,-0.02147 0.214674,-0.0322 v 1.266576 q -0.161005,0.02147 -0.440081,0.04293 -0.268343,0.0322 -0.558153,0.0322 z"
         id="path1508"
         style="fill:#ffffff" />
    </g>
  </g>
</svg>
